<?xml version="1.0" encoding="utf-8"?>
<svg version="1.1" id="Layer_1" xmlns="http://www.w3.org/2000/svg" xmlns:xlink="http://www.w3.org/1999/xlink" x="0px" y="0px" viewBox="0 0 520 520" style="enable-background:new 0 0 520 520;" xml:space="preserve">
  <style type="text/css">
    .square { fill: #291F19; }
    .mark { fill: #FAF9F5; }
    @media (prefers-color-scheme: dark) {
      .square { fill: #FAF9F5; }
      .mark { fill: #291F19; }
    }
  </style>
  <rect class="square" width="520" height="520" />
  <g>
    <polygon class="mark mark-e" points="103.4,268.2 217.4,268.2 217.4,234.8 103.4,234.8 103.4,129.3 220.1,129.3 220.1,95.6 103.4,95.6 
      81.2,95.6 65,95.6 65,414.4 81.7,414.4 103.4,414.4 220.9,414.4 220.9,380.7 103.4,380.7 " />
    <polygon class="mark mark-k" points="369.7,249.1 462.3,95.6 419.6,95.6 336.3,235.1 310.9,235.1 310.9,95.6 272.2,95.6 272.2,414.4 
      310.9,414.4 310.9,267.7 336.6,267.7 421.4,414.4 465,414.4 " />
  </g>
</svg>
