<?xml version="1.0" standalone="no"?>
<!DOCTYPE svg PUBLIC "-//W3C//DTD SVG 20010904//EN"
 "http://www.w3.org/TR/2001/REC-SVG-20010904/DTD/svg10.dtd">
<svg version="1.0" xmlns="http://www.w3.org/2000/svg" width="520pt" height="520pt" viewBox="0 0 520 520" preserveAspectRatio="xMidYMid meet">
  <g transform="translate(0,520) scale(0.1,-0.1)" fill="#000000" stroke="none">
    <path d="M650 2650 l0 -1600 780 0 780 0 0 175 0 175 -585 0 -585 0 0 560 0 560 570 0 570 0 0 165 0 165 -570 0 -570 0 0 525 0 525 580 0 580 0 0 175 0 175 -775 0 -775 0 0 -1600z"/>
    <path d="M2720 2650 l0 -1600 195 0 195 0 0 735 0 735 128 0 127 0 418 -724 c230 -398 424 -729 430 -735 11 -11 437 -17 437 -6 0 4 -214 377 -475 830 l-475 824 455 754 c250 415 458 762 461 771 6 14 -16 16 -205 16 l-212 0 -35 -57 c-20 -32 -208 -346 -418 -698 l-382 -640 -127 -3 -127 -3 0 701 0 700 -195 0 -195 0 0 -1600z"/>
  </g>
</svg>
